# xmcd
#
# Track frame offsets:
#	150
#	21795
#	42744
#	62820
#	78863
#	93117
#	110650
#	130598
#	150416
#	168831
#	186015
#	204878
#
# Disc length: 2906 seconds
#
# Revision: 1
# Processed by: cddbd v1.5.2PL0 Copyright (c) Steve Scherf et al.
# Submitted via: audiograbber 1.83.01
#
DISCID=8c0b580c
DTITLE=Gisbert Zu Knyphausen - Das Licht Dieser Welt
DYEAR=2017
DGENRE=Indie
TTITLE0=Niemand
TTITLE1=Sonnige Grüße Aus Khao Lak, Thailand
TTITLE2=Unter Dem Hellblauen Himmel
TTITLE3=Dich Zu Lieben Ist Einfach
TTITLE4=Stadt Land Flucht
TTITLE5=Keine Zeit Zu Verlieren
TTITLE6=Kommen Und Gehen
TTITLE7=Teheran Smiles
TTITLE8=Das Licht Dieser Welt
TTITLE9=Cigarettes and Citylights
TTITLE10=Etwas Besseres Als Den Tod Finden Wir Überall
TTITLE11=Carla Bruno
EXTD=
EXTT0=
EXTT1=
EXTT2=
EXTT3=
EXTT4=
EXTT5=
EXTT6=
EXTT7=
EXTT8=
EXTT9=
EXTT10=
EXTT11=
PLAYORDER=
